<svg id="SvgjsSvg1006" width="821" height="738" xmlns="http://www.w3.org/2000/svg" version="1.1" xmlns:xlink="http://www.w3.org/1999/xlink" xmlns:svgjs="http://svgjs.com/svgjs"><defs id="SvgjsDefs1007"><marker id="SvgjsMarker1140" markerWidth="16" markerHeight="12" refX="16" refY="6" viewBox="0 0 16 12" orient="auto" markerUnits="userSpaceOnUse" stroke-dasharray="0,0"><path id="SvgjsPath1141" d="M0,2 L14,6 L0,11 L0,2" fill="#323232" stroke="#323232" stroke-width="2"></path></marker><marker id="SvgjsMarker1150" markerWidth="16" markerHeight="12" refX="16" refY="6" viewBox="0 0 16 12" orient="auto" markerUnits="userSpaceOnUse" stroke-dasharray="0,0"><path id="SvgjsPath1151" d="M0,2 L14,6 L0,11 L0,2" fill="#323232" stroke="#323232" stroke-width="2"></path></marker><marker id="SvgjsMarker1154" markerWidth="16" markerHeight="12" refX="16" refY="6" viewBox="0 0 16 12" orient="auto" markerUnits="userSpaceOnUse" stroke-dasharray="0,0"><path id="SvgjsPath1155" d="M0,2 L14,6 L0,11 L0,2" fill="#323232" stroke="#323232" stroke-width="2"></path></marker><marker id="SvgjsMarker1158" markerWidth="16" markerHeight="12" refX="16" refY="6" viewBox="0 0 16 12" orient="auto" markerUnits="userSpaceOnUse" stroke-dasharray="0,0"><path id="SvgjsPath1159" d="M0,2 L14,6 L0,11 L0,2" fill="#323232" stroke="#323232" stroke-width="2"></path></marker><marker id="SvgjsMarker1162" markerWidth="16" markerHeight="12" refX="16" refY="6" viewBox="0 0 16 12" orient="auto" markerUnits="userSpaceOnUse" stroke-dasharray="0,0"><path id="SvgjsPath1163" d="M0,2 L14,6 L0,11 L0,2" fill="#323232" stroke="#323232" stroke-width="2"></path></marker><marker id="SvgjsMarker1166" markerWidth="16" markerHeight="12" refX="16" refY="6" viewBox="0 0 16 12" orient="auto" markerUnits="userSpaceOnUse" stroke-dasharray="0,0"><path id="SvgjsPath1167" d="M0,2 L14,6 L0,11 L0,2" fill="#323232" stroke="#323232" stroke-width="2"></path></marker><marker id="SvgjsMarker1170" markerWidth="16" markerHeight="12" refX="16" refY="6" viewBox="0 0 16 12" orient="auto" markerUnits="userSpaceOnUse" stroke-dasharray="0,0"><path id="SvgjsPath1171" d="M0,2 L14,6 L0,11 L0,2" fill="#323232" stroke="#323232" stroke-width="2"></path></marker><marker id="SvgjsMarker1174" markerWidth="16" markerHeight="12" refX="16" refY="6" viewBox="0 0 16 12" orient="auto" markerUnits="userSpaceOnUse" stroke-dasharray="0,0"><path id="SvgjsPath1175" d="M0,2 L14,6 L0,11 L0,2" fill="#323232" stroke="#323232" stroke-width="2"></path></marker><marker id="SvgjsMarker1196" markerWidth="16" markerHeight="12" refX="16" refY="6" viewBox="0 0 16 12" orient="auto" markerUnits="userSpaceOnUse" stroke-dasharray="0,0"><path id="SvgjsPath1197" d="M0,2 L14,6 L0,11 L0,2" fill="#323232" stroke="#323232" stroke-width="2"></path></marker><marker id="SvgjsMarker1200" markerWidth="16" markerHeight="12" refX="16" refY="6" viewBox="0 0 16 12" orient="auto" markerUnits="userSpaceOnUse" stroke-dasharray="0,0"><path id="SvgjsPath1201" d="M0,2 L14,6 L0,11 L0,2" fill="#323232" stroke="#323232" stroke-width="2"></path></marker><marker id="SvgjsMarker1204" markerWidth="16" markerHeight="12" refX="16" refY="6" viewBox="0 0 16 12" orient="auto" markerUnits="userSpaceOnUse" stroke-dasharray="0,0"><path id="SvgjsPath1205" d="M0,2 L14,6 L0,11 L0,2" fill="#323232" stroke="#323232" stroke-width="2"></path></marker><marker id="SvgjsMarker1208" markerWidth="16" markerHeight="12" refX="16" refY="6" viewBox="0 0 16 12" orient="auto" markerUnits="userSpaceOnUse" stroke-dasharray="0,0"><path id="SvgjsPath1209" d="M0,2 L14,6 L0,11 L0,2" fill="#323232" stroke="#323232" stroke-width="2"></path></marker><marker id="SvgjsMarker1212" markerWidth="16" markerHeight="12" refX="16" refY="6" viewBox="0 0 16 12" orient="auto" markerUnits="userSpaceOnUse" stroke-dasharray="0,0"><path id="SvgjsPath1213" d="M0,2 L14,6 L0,11 L0,2" fill="#323232" stroke="#323232" stroke-width="2"></path></marker><marker id="SvgjsMarker1216" markerWidth="16" markerHeight="12" refX="16" refY="6" viewBox="0 0 16 12" orient="auto" markerUnits="userSpaceOnUse" stroke-dasharray="0,0"><path id="SvgjsPath1217" d="M0,2 L14,6 L0,11 L0,2" fill="#323232" stroke="#323232" stroke-width="2"></path></marker><marker id="SvgjsMarker1220" markerWidth="16" markerHeight="12" refX="16" refY="6" viewBox="0 0 16 12" orient="auto" markerUnits="userSpaceOnUse" stroke-dasharray="0,0"><path id="SvgjsPath1221" d="M0,2 L14,6 L0,11 L0,2" fill="#323232" stroke="#323232" stroke-width="2"></path></marker><marker id="SvgjsMarker1224" markerWidth="16" markerHeight="12" refX="16" refY="6" viewBox="0 0 16 12" orient="auto" markerUnits="userSpaceOnUse" stroke-dasharray="0,0"><path id="SvgjsPath1225" d="M0,2 L14,6 L0,11 L0,2" fill="#323232" stroke="#323232" stroke-width="2"></path></marker></defs><g id="SvgjsG1008" transform="translate(25,147)"><path id="SvgjsPath1009" d="M 0 0L 771 0L 771 440L 0 440Z" stroke-dasharray="10,6" stroke="rgba(50,50,50,1)" stroke-width="2" fill-opacity="1" fill="#ffffff"></path><g id="SvgjsG1010"><text id="SvgjsText1011" font-family="微软雅黑" text-anchor="middle" font-size="13px" width="751px" fill="#323232" font-weight="400" align="middle" anchor="middle" family="微软雅黑" size="13px" weight="400" font-style="" opacity="1" y="210.05" transform="rotate(0)"></text></g></g><g id="SvgjsG1012" transform="translate(179,25)"><path id="SvgjsPath1013" d="M 0 0L 569 0L 569 53L 0 53Z" stroke="rgba(50,50,50,1)" stroke-width="2" fill-opacity="1" fill="#ffffff"></path><g id="SvgjsG1014"><text id="SvgjsText1015" font-family="微软雅黑" text-anchor="middle" font-size="13px" width="549px" fill="#323232" font-weight="400" align="middle" anchor="middle" family="微软雅黑" size="13px" weight="400" font-style="" opacity="1" y="16.55" transform="rotate(0)"><tspan id="SvgjsTspan1016" dy="16" x="284.5"><tspan id="SvgjsTspan1017" style="text-decoration:;">service</tspan></tspan></text></g></g><g id="SvgjsG1018" transform="translate(200,178)"><path id="SvgjsPath1019" d="M 0 0L 112 0L 112 393L 0 393Z" stroke="rgba(50,50,50,1)" stroke-width="2" fill-opacity="1" fill="#ffffff"></path><g id="SvgjsG1020"><text id="SvgjsText1021" font-family="微软雅黑" text-anchor="middle" font-size="13px" width="92px" fill="#323232" font-weight="400" align="middle" anchor="middle" family="微软雅黑" size="13px" weight="400" font-style="" opacity="1" y="186.55" transform="rotate(0)"></text></g></g><g id="SvgjsG1022" transform="translate(349,178)"><path id="SvgjsPath1023" d="M 0 0L 112 0L 112 284L 0 284Z" stroke="rgba(50,50,50,1)" stroke-width="2" fill-opacity="1" fill="#ffffff"></path><g id="SvgjsG1024"><text id="SvgjsText1025" font-family="微软雅黑" text-anchor="middle" font-size="13px" width="92px" fill="#323232" font-weight="400" align="middle" anchor="middle" family="微软雅黑" size="13px" weight="400" font-style="" opacity="1" y="132.05" transform="rotate(0)"></text></g></g><g id="SvgjsG1026" transform="translate(501,178)"><path id="SvgjsPath1027" d="M 0 0L 112 0L 112 284L 0 284Z" stroke="rgba(50,50,50,1)" stroke-width="2" fill-opacity="1" fill="#ffffff"></path><g id="SvgjsG1028"><text id="SvgjsText1029" font-family="微软雅黑" text-anchor="middle" font-size="13px" width="92px" fill="#323232" font-weight="400" align="middle" anchor="middle" family="微软雅黑" size="13px" weight="400" font-style="" opacity="1" y="132.05" transform="rotate(0)"></text></g></g><g id="SvgjsG1030" transform="translate(656,178)"><path id="SvgjsPath1031" d="M 0 0L 112 0L 112 284L 0 284Z" stroke="rgba(50,50,50,1)" stroke-width="2" fill-opacity="1" fill="#ffffff"></path><g id="SvgjsG1032"><text id="SvgjsText1033" font-family="微软雅黑" text-anchor="middle" font-size="13px" width="92px" fill="#323232" font-weight="400" align="middle" anchor="middle" family="微软雅黑" size="13px" weight="400" font-style="" opacity="1" y="132.05" transform="rotate(0)"></text></g></g><g id="SvgjsG1034" transform="translate(25,309.5)"><path id="SvgjsPath1035" d="M 0 0L 120 0L 120 40L 0 40Z" stroke="none" fill="none"></path><g id="SvgjsG1036"><text id="SvgjsText1037" font-family="微软雅黑" text-anchor="middle" font-size="20px" width="120px" fill="#323232" font-weight="400" align="middle" anchor="middle" family="微软雅黑" size="20px" weight="400" font-style="" opacity="1" y="-8" transform="rotate(0)"><tspan id="SvgjsTspan1038" dy="25" x="60"><tspan id="SvgjsTspan1039" style="text-decoration:;">edge</tspan></tspan><tspan id="SvgjsTspan1040" dy="25" x="60"><tspan id="SvgjsTspan1041" style="text-decoration:;">servers</tspan></tspan></text></g></g><g id="SvgjsG1042" transform="translate(206,221)"><path id="SvgjsPath1043" d="M 0 0L 100 0L 100 70L 0 70Z" stroke="rgba(50,50,50,1)" stroke-width="2" fill-opacity="1" fill="#ffffff"></path><g id="SvgjsG1044"><text id="SvgjsText1045" font-family="微软雅黑" text-anchor="middle" font-size="13px" width="80px" fill="#323232" font-weight="400" align="middle" anchor="middle" family="微软雅黑" size="13px" weight="400" font-style="" opacity="1" y="17.05" transform="rotate(0)"><tspan id="SvgjsTspan1046" dy="16" x="50"><tspan id="SvgjsTspan1047" style="text-decoration:;">shallow</tspan></tspan><tspan id="SvgjsTspan1048" dy="16" x="50"><tspan id="SvgjsTspan1049" style="text-decoration:;">NN</tspan></tspan></text></g></g><g id="SvgjsG1050" transform="translate(355,221)"><path id="SvgjsPath1051" d="M 0 0L 100 0L 100 70L 0 70Z" stroke="rgba(50,50,50,1)" stroke-width="2" fill-opacity="1" fill="#ffffff"></path><g id="SvgjsG1052"><text id="SvgjsText1053" font-family="微软雅黑" text-anchor="middle" font-size="13px" width="80px" fill="#323232" font-weight="400" align="middle" anchor="middle" family="微软雅黑" size="13px" weight="400" font-style="" opacity="1" y="17.05" transform="rotate(0)"><tspan id="SvgjsTspan1054" dy="16" x="50"><tspan id="SvgjsTspan1055" style="text-decoration:;">shallow</tspan></tspan><tspan id="SvgjsTspan1056" dy="16" x="50"><tspan id="SvgjsTspan1057" style="text-decoration:;">NN</tspan></tspan></text></g></g><g id="SvgjsG1058" transform="translate(507,221)"><path id="SvgjsPath1059" d="M 0 0L 100 0L 100 70L 0 70Z" stroke="rgba(50,50,50,1)" stroke-width="2" fill-opacity="1" fill="#ffffff"></path><g id="SvgjsG1060"><text id="SvgjsText1061" font-family="微软雅黑" text-anchor="middle" font-size="13px" width="80px" fill="#323232" font-weight="400" align="middle" anchor="middle" family="微软雅黑" size="13px" weight="400" font-style="" opacity="1" y="17.05" transform="rotate(0)"><tspan id="SvgjsTspan1062" dy="16" x="50"><tspan id="SvgjsTspan1063" style="text-decoration:;">shallow</tspan></tspan><tspan id="SvgjsTspan1064" dy="16" x="50"><tspan id="SvgjsTspan1065" style="text-decoration:;">NN</tspan></tspan></text></g></g><g id="SvgjsG1066" transform="translate(662,221)"><path id="SvgjsPath1067" d="M 0 0L 100 0L 100 70L 0 70Z" stroke="rgba(50,50,50,1)" stroke-width="2" fill-opacity="1" fill="#ffffff"></path><g id="SvgjsG1068"><text id="SvgjsText1069" font-family="微软雅黑" text-anchor="middle" font-size="13px" width="80px" fill="#323232" font-weight="400" align="middle" anchor="middle" family="微软雅黑" size="13px" weight="400" font-style="" opacity="1" y="17.05" transform="rotate(0)"><tspan id="SvgjsTspan1070" dy="16" x="50"><tspan id="SvgjsTspan1071" style="text-decoration:;">shallow</tspan></tspan><tspan id="SvgjsTspan1072" dy="16" x="50"><tspan id="SvgjsTspan1073" style="text-decoration:;">NN</tspan></tspan></text></g></g><g id="SvgjsG1074" transform="translate(213,181)"><path id="SvgjsPath1075" d="M 0 0L 120 0L 120 40L 0 40Z" stroke="none" fill="none"></path><g id="SvgjsG1076"><text id="SvgjsText1077" font-family="微软雅黑" text-anchor="middle" font-size="13px" width="120px" fill="#323232" font-weight="400" align="middle" anchor="middle" family="微软雅黑" size="13px" weight="400" font-style="" opacity="1" y="10.05" transform="rotate(0)"><tspan id="SvgjsTspan1078" dy="16" x="60"><tspan id="SvgjsTspan1079" style="text-decoration:;">#0</tspan></tspan></text></g></g><g id="SvgjsG1080" transform="translate(361,181)"><path id="SvgjsPath1081" d="M 0 0L 120 0L 120 40L 0 40Z" stroke="none" fill="none"></path><g id="SvgjsG1082"><text id="SvgjsText1083" font-family="微软雅黑" text-anchor="middle" font-size="13px" width="120px" fill="#323232" font-weight="400" align="middle" anchor="middle" family="微软雅黑" size="13px" weight="400" font-style="" opacity="1" y="10.05" transform="rotate(0)"><tspan id="SvgjsTspan1084" dy="16" x="60"><tspan id="SvgjsTspan1085" style="text-decoration:;">#1</tspan></tspan></text></g></g><g id="SvgjsG1086" transform="translate(515,181)"><path id="SvgjsPath1087" d="M 0 0L 120 0L 120 40L 0 40Z" stroke="none" fill="none"></path><g id="SvgjsG1088"><text id="SvgjsText1089" font-family="微软雅黑" text-anchor="middle" font-size="13px" width="120px" fill="#323232" font-weight="400" align="middle" anchor="middle" family="微软雅黑" size="13px" weight="400" font-style="" opacity="1" y="10.05" transform="rotate(0)"><tspan id="SvgjsTspan1090" dy="16" x="60"><tspan id="SvgjsTspan1091" style="text-decoration:;">#2</tspan></tspan></text></g></g><g id="SvgjsG1092" transform="translate(667,181)"><path id="SvgjsPath1093" d="M 0 0L 120 0L 120 40L 0 40Z" stroke="none" fill="none"></path><g id="SvgjsG1094"><text id="SvgjsText1095" font-family="微软雅黑" text-anchor="middle" font-size="13px" width="120px" fill="#323232" font-weight="400" align="middle" anchor="middle" family="微软雅黑" size="13px" weight="400" font-style="" opacity="1" y="10.05" transform="rotate(0)"><tspan id="SvgjsTspan1096" dy="16" x="60"><tspan id="SvgjsTspan1097" style="text-decoration:;">#3</tspan></tspan></text></g></g><g id="SvgjsG1098" transform="translate(355,369)"><path id="SvgjsPath1099" d="M 0 0L 100 0L 100 70L 0 70Z" stroke="rgba(50,50,50,1)" stroke-width="2" fill-opacity="1" fill="#ffffff"></path><g id="SvgjsG1100"><text id="SvgjsText1101" font-family="微软雅黑" text-anchor="middle" font-size="13px" width="80px" fill="#323232" font-weight="400" align="middle" anchor="middle" family="微软雅黑" size="13px" weight="400" font-style="" opacity="1" y="17.05" transform="rotate(0)"><tspan id="SvgjsTspan1102" dy="16" x="50"><tspan id="SvgjsTspan1103" style="text-decoration:;">feature map</tspan></tspan><tspan id="SvgjsTspan1104" dy="16" x="50"><tspan id="SvgjsTspan1105" style="text-decoration:;">storage</tspan></tspan></text></g></g><g id="SvgjsG1106" transform="translate(507,369)"><path id="SvgjsPath1107" d="M 0 0L 100 0L 100 70L 0 70Z" stroke="rgba(50,50,50,1)" stroke-width="2" fill-opacity="1" fill="#ffffff"></path><g id="SvgjsG1108"><text id="SvgjsText1109" font-family="微软雅黑" text-anchor="middle" font-size="13px" width="80px" fill="#323232" font-weight="400" align="middle" anchor="middle" family="微软雅黑" size="13px" weight="400" font-style="" opacity="1" y="17.05" transform="rotate(0)"><tspan id="SvgjsTspan1110" dy="16" x="50"><tspan id="SvgjsTspan1111" style="text-decoration:;">feature map</tspan></tspan><tspan id="SvgjsTspan1112" dy="16" x="50"><tspan id="SvgjsTspan1113" style="text-decoration:;">storage</tspan></tspan></text></g></g><g id="SvgjsG1114" transform="translate(662,369)"><path id="SvgjsPath1115" d="M 0 0L 100 0L 100 70L 0 70Z" stroke="rgba(50,50,50,1)" stroke-width="2" fill-opacity="1" fill="#ffffff"></path><g id="SvgjsG1116"><text id="SvgjsText1117" font-family="微软雅黑" text-anchor="middle" font-size="13px" width="80px" fill="#323232" font-weight="400" align="middle" anchor="middle" family="微软雅黑" size="13px" weight="400" font-style="" opacity="1" y="17.05" transform="rotate(0)"><tspan id="SvgjsTspan1118" dy="16" x="50"><tspan id="SvgjsTspan1119" style="text-decoration:;">feature map</tspan></tspan><tspan id="SvgjsTspan1120" dy="16" x="50"><tspan id="SvgjsTspan1121" style="text-decoration:;">storage</tspan></tspan></text></g></g><g id="SvgjsG1122" transform="translate(206,374)"><path id="SvgjsPath1123" d="M 0 0L 100 0L 100 70L 0 70Z" stroke="rgba(50,50,50,1)" stroke-width="2" fill-opacity="1" fill="#ffffff"></path><g id="SvgjsG1124"><text id="SvgjsText1125" font-family="微软雅黑" text-anchor="middle" font-size="13px" width="80px" fill="#323232" font-weight="400" align="middle" anchor="middle" family="微软雅黑" size="13px" weight="400" font-style="" opacity="1" y="17.05" transform="rotate(0)"><tspan id="SvgjsTspan1126" dy="16" x="50"><tspan id="SvgjsTspan1127" style="text-decoration:;">feature map</tspan></tspan><tspan id="SvgjsTspan1128" dy="16" x="50"><tspan id="SvgjsTspan1129" style="text-decoration:;">storage</tspan></tspan></text></g></g><g id="SvgjsG1130" transform="translate(206,488)"><path id="SvgjsPath1131" d="M 0 0L 100 0L 100 70L 0 70Z" stroke="rgba(50,50,50,1)" stroke-width="2" fill-opacity="1" fill="#ffffff"></path><g id="SvgjsG1132"><text id="SvgjsText1133" font-family="微软雅黑" text-anchor="middle" font-size="13px" width="80px" fill="#323232" font-weight="400" align="middle" anchor="middle" family="微软雅黑" size="13px" weight="400" font-style="" opacity="1" y="17.05" transform="rotate(0)"><tspan id="SvgjsTspan1134" dy="16" x="50"><tspan id="SvgjsTspan1135" style="text-decoration:;">local</tspan></tspan><tspan id="SvgjsTspan1136" dy="16" x="50"><tspan id="SvgjsTspan1137" style="text-decoration:;">aggregator</tspan></tspan></text></g></g><g id="SvgjsG1138"><path id="SvgjsPath1139" d="M256 291L256 332.5L256 332.5L256 374" stroke="#323232" stroke-width="2" fill="none" marker-end="url(#SvgjsMarker1140)"></path><rect id="SvgjsRect1142" width="43" height="32" x="234.5" y="316.5" fill="#ffffff"></rect><text id="SvgjsText1143" font-family="微软雅黑" text-anchor="middle" font-size="13px" width="43px" fill="#323232" font-weight="400" align="top" anchor="middle" family="微软雅黑" size="13px" weight="400" font-style="" opacity="1" y="314.55" transform="rotate(0)"><tspan id="SvgjsTspan1144" dy="16" x="256"><tspan id="SvgjsTspan1145" style="text-decoration:;">feature</tspan></tspan><tspan id="SvgjsTspan1146" dy="16" x="256"><tspan id="SvgjsTspan1147" style="text-decoration:;">map</tspan></tspan></text></g><g id="SvgjsG1148"><path id="SvgjsPath1149" d="M405 291L405 330L405 330L405 369" stroke="#323232" stroke-width="2" fill="none" marker-end="url(#SvgjsMarker1150)"></path></g><g id="SvgjsG1152"><path id="SvgjsPath1153" d="M557 291L557 330L557 330L557 369" stroke="#323232" stroke-width="2" fill="none" marker-end="url(#SvgjsMarker1154)"></path></g><g id="SvgjsG1156"><path id="SvgjsPath1157" d="M712 291L712 330L712 330L712 369" stroke="#323232" stroke-width="2" fill="none" marker-end="url(#SvgjsMarker1158)"></path></g><g id="SvgjsG1160"><path id="SvgjsPath1161" d="M206 256L176 256L176 523L206 523" stroke-dasharray="8,5" stroke="#323232" stroke-width="2" fill="none" marker-end="url(#SvgjsMarker1162)"></path></g><g id="SvgjsG1164"><path id="SvgjsPath1165" d="M355 256L330.5 256L330.5 523L306 523" stroke-dasharray="8,5" stroke="#323232" stroke-width="2" fill="none" marker-end="url(#SvgjsMarker1166)"></path></g><g id="SvgjsG1168"><path id="SvgjsPath1169" d="M507 256L477.5 256L477.5 523L306 523" stroke-dasharray="8,5" stroke="#323232" stroke-width="2" fill="none" marker-end="url(#SvgjsMarker1170)"></path></g><g id="SvgjsG1172"><path id="SvgjsPath1173" d="M662 256L634 256L634 523L306 523" stroke-dasharray="8,5" stroke="#323232" stroke-width="2" fill="none" marker-end="url(#SvgjsMarker1174)"></path><rect id="SvgjsRect1176" width="79" height="32" x="578" y="507" fill="#ffffff"></rect><text id="SvgjsText1177" font-family="微软雅黑" text-anchor="middle" font-size="13px" width="79px" fill="#323232" font-weight="400" align="top" anchor="middle" family="微软雅黑" size="13px" weight="400" font-style="" opacity="1" y="505.05" transform="rotate(0)"><tspan id="SvgjsTspan1178" dy="16" x="617.5"><tspan id="SvgjsTspan1179" style="text-decoration:;">classification</tspan></tspan><tspan id="SvgjsTspan1180" dy="16" x="617.5"><tspan id="SvgjsTspan1181" style="text-decoration:;">probability</tspan></tspan></text></g><g id="SvgjsG1182" transform="translate(429,78)"><path id="SvgjsPath1183" d="M 0 0L 120 0L 120 40L 0 40Z" stroke="none" fill="none"></path><g id="SvgjsG1184"><text id="SvgjsText1185" font-family="微软雅黑" text-anchor="middle" font-size="13px" width="120px" fill="#323232" font-weight="400" align="middle" anchor="middle" family="微软雅黑" size="13px" weight="400" font-style="" opacity="1" y="10.05" transform="rotate(0)"><tspan id="SvgjsTspan1186" dy="16" x="60"><tspan id="SvgjsTspan1187" style="text-decoration:;">image</tspan></tspan></text></g></g><g id="SvgjsG1188" transform="translate(236,649)"><path id="SvgjsPath1189" d="M 0 0L 526 0L 526 64L 0 64Z" stroke="rgba(50,50,50,1)" stroke-width="2" fill-opacity="1" fill="#ffffff"></path><g id="SvgjsG1190"><text id="SvgjsText1191" font-family="微软雅黑" text-anchor="middle" font-size="13px" width="506px" fill="#323232" font-weight="400" align="middle" anchor="middle" family="微软雅黑" size="13px" weight="400" font-style="" opacity="1" y="22.05" transform="rotate(0)"><tspan id="SvgjsTspan1192" dy="16" x="263"><tspan id="SvgjsTspan1193" style="text-decoration:;">cloud (large NN)</tspan></tspan></text></g></g><g id="SvgjsG1194"><path id="SvgjsPath1195" d="M256 444L256 475.5L499 475.5L499 649" stroke="#323232" stroke-width="2" fill="none" marker-end="url(#SvgjsMarker1196)"></path></g><g id="SvgjsG1198"><path id="SvgjsPath1199" d="M405 439L405 476L499 476L499 649" stroke="#323232" stroke-width="2" fill="none" marker-end="url(#SvgjsMarker1200)"></path></g><g id="SvgjsG1202"><path id="SvgjsPath1203" d="M557 439L557 476L499 476L499 649" stroke="#323232" stroke-width="2" fill="none" marker-end="url(#SvgjsMarker1204)"></path></g><g id="SvgjsG1206"><path id="SvgjsPath1207" d="M712 439L712 476L499 476L499 649" stroke="#323232" stroke-width="2" fill="none" marker-end="url(#SvgjsMarker1208)"></path></g><g id="SvgjsG1210"><path id="SvgjsPath1211" d="M463.5 78L463.5 129.5L256 129.5L256 221" stroke="#323232" stroke-width="2" fill="none" marker-end="url(#SvgjsMarker1212)"></path></g><g id="SvgjsG1214"><path id="SvgjsPath1215" d="M306 256L335.5 256L335.5 164L405 164L405 221" stroke="#323232" stroke-width="2" fill="none" marker-end="url(#SvgjsMarker1216)"></path></g><g id="SvgjsG1218"><path id="SvgjsPath1219" d="M306 256L336 256L336 164L557 164L557 221" stroke="#323232" stroke-width="2" fill="none" marker-end="url(#SvgjsMarker1220)"></path></g><g id="SvgjsG1222"><path id="SvgjsPath1223" d="M306 256L336 256L336 164L712 164L712 221" stroke="#323232" stroke-width="2" fill="none" marker-end="url(#SvgjsMarker1224)"></path></g></svg>
