<svg id="SvgjsSvg1226" width="821" height="738" xmlns="http://www.w3.org/2000/svg" version="1.1" xmlns:xlink="http://www.w3.org/1999/xlink" xmlns:svgjs="http://svgjs.com/svgjs"><defs id="SvgjsDefs1227"><marker id="SvgjsMarker1360" markerWidth="16" markerHeight="12" refX="16" refY="6" viewBox="0 0 16 12" orient="auto" markerUnits="userSpaceOnUse" stroke-dasharray="0,0"><path id="SvgjsPath1361" d="M0,2 L14,6 L0,11 L0,2" fill="#323232" stroke="#323232" stroke-width="2"></path></marker><marker id="SvgjsMarker1370" markerWidth="16" markerHeight="12" refX="16" refY="6" viewBox="0 0 16 12" orient="auto" markerUnits="userSpaceOnUse" stroke-dasharray="0,0"><path id="SvgjsPath1371" d="M0,2 L14,6 L0,11 L0,2" fill="#323232" stroke="#323232" stroke-width="2"></path></marker><marker id="SvgjsMarker1374" markerWidth="16" markerHeight="12" refX="16" refY="6" viewBox="0 0 16 12" orient="auto" markerUnits="userSpaceOnUse" stroke-dasharray="0,0"><path id="SvgjsPath1375" d="M0,2 L14,6 L0,11 L0,2" fill="#323232" stroke="#323232" stroke-width="2"></path></marker><marker id="SvgjsMarker1378" markerWidth="16" markerHeight="12" refX="16" refY="6" viewBox="0 0 16 12" orient="auto" markerUnits="userSpaceOnUse" stroke-dasharray="0,0"><path id="SvgjsPath1379" d="M0,2 L14,6 L0,11 L0,2" fill="#323232" stroke="#323232" stroke-width="2"></path></marker><marker id="SvgjsMarker1382" markerWidth="16" markerHeight="12" refX="16" refY="6" viewBox="0 0 16 12" orient="auto" markerUnits="userSpaceOnUse" stroke-dasharray="0,0"><path id="SvgjsPath1383" d="M0,2 L14,6 L0,11 L0,2" fill="#323232" stroke="#323232" stroke-width="2"></path></marker><marker id="SvgjsMarker1386" markerWidth="16" markerHeight="12" refX="16" refY="6" viewBox="0 0 16 12" orient="auto" markerUnits="userSpaceOnUse" stroke-dasharray="0,0"><path id="SvgjsPath1387" d="M0,2 L14,6 L0,11 L0,2" fill="#323232" stroke="#323232" stroke-width="2"></path></marker><marker id="SvgjsMarker1390" markerWidth="16" markerHeight="12" refX="16" refY="6" viewBox="0 0 16 12" orient="auto" markerUnits="userSpaceOnUse" stroke-dasharray="0,0"><path id="SvgjsPath1391" d="M0,2 L14,6 L0,11 L0,2" fill="#323232" stroke="#323232" stroke-width="2"></path></marker><marker id="SvgjsMarker1394" markerWidth="16" markerHeight="12" refX="16" refY="6" viewBox="0 0 16 12" orient="auto" markerUnits="userSpaceOnUse" stroke-dasharray="0,0"><path id="SvgjsPath1395" d="M0,2 L14,6 L0,11 L0,2" fill="#323232" stroke="#323232" stroke-width="2"></path></marker><marker id="SvgjsMarker1404" markerWidth="16" markerHeight="12" refX="16" refY="6" viewBox="0 0 16 12" orient="auto" markerUnits="userSpaceOnUse" stroke-dasharray="0,0"><path id="SvgjsPath1405" d="M0,2 L14,6 L0,11 L0,2" fill="#323232" stroke="#323232" stroke-width="2"></path></marker><marker id="SvgjsMarker1408" markerWidth="16" markerHeight="12" refX="16" refY="6" viewBox="0 0 16 12" orient="auto" markerUnits="userSpaceOnUse" stroke-dasharray="0,0"><path id="SvgjsPath1409" d="M0,2 L14,6 L0,11 L0,2" fill="#323232" stroke="#323232" stroke-width="2"></path></marker><marker id="SvgjsMarker1424" markerWidth="16" markerHeight="12" refX="16" refY="6" viewBox="0 0 16 12" orient="auto" markerUnits="userSpaceOnUse" stroke-dasharray="0,0"><path id="SvgjsPath1425" d="M0,2 L14,6 L0,11 L0,2" fill="#323232" stroke="#323232" stroke-width="2"></path></marker><marker id="SvgjsMarker1428" markerWidth="16" markerHeight="12" refX="16" refY="6" viewBox="0 0 16 12" orient="auto" markerUnits="userSpaceOnUse" stroke-dasharray="0,0"><path id="SvgjsPath1429" d="M0,2 L14,6 L0,11 L0,2" fill="#323232" stroke="#323232" stroke-width="2"></path></marker><marker id="SvgjsMarker1432" markerWidth="16" markerHeight="12" refX="16" refY="6" viewBox="0 0 16 12" orient="auto" markerUnits="userSpaceOnUse" stroke-dasharray="0,0"><path id="SvgjsPath1433" d="M0,2 L14,6 L0,11 L0,2" fill="#323232" stroke="#323232" stroke-width="2"></path></marker><marker id="SvgjsMarker1436" markerWidth="16" markerHeight="12" refX="16" refY="6" viewBox="0 0 16 12" orient="auto" markerUnits="userSpaceOnUse" stroke-dasharray="0,0"><path id="SvgjsPath1437" d="M0,2 L14,6 L0,11 L0,2" fill="#323232" stroke="#323232" stroke-width="2"></path></marker><marker id="SvgjsMarker1440" markerWidth="16" markerHeight="12" refX="16" refY="6" viewBox="0 0 16 12" orient="auto" markerUnits="userSpaceOnUse" stroke-dasharray="0,0"><path id="SvgjsPath1441" d="M0,2 L14,6 L0,11 L0,2" fill="#323232" stroke="#323232" stroke-width="2"></path></marker><marker id="SvgjsMarker1444" markerWidth="16" markerHeight="12" refX="16" refY="6" viewBox="0 0 16 12" orient="auto" markerUnits="userSpaceOnUse" stroke-dasharray="0,0"><path id="SvgjsPath1445" d="M0,2 L14,6 L0,11 L0,2" fill="#323232" stroke="#323232" stroke-width="2"></path></marker></defs><g id="SvgjsG1228" transform="translate(25,147)"><path id="SvgjsPath1229" d="M 0 0L 771 0L 771 440L 0 440Z" stroke="rgba(50,50,50,1)" stroke-width="2" fill-opacity="1" fill="#ffffff"></path><g id="SvgjsG1230"><text id="SvgjsText1231" font-family="微软雅黑" text-anchor="middle" font-size="13px" width="751px" fill="#323232" font-weight="400" align="middle" anchor="middle" family="微软雅黑" size="13px" weight="400" font-style="" opacity="1" y="210.05" transform="rotate(0)"></text></g></g><g id="SvgjsG1232" transform="translate(179,25)"><path id="SvgjsPath1233" d="M 0 0L 569 0L 569 53L 0 53Z" stroke="rgba(50,50,50,1)" stroke-width="2" fill-opacity="1" fill="#ffffff"></path><g id="SvgjsG1234"><text id="SvgjsText1235" font-family="微软雅黑" text-anchor="middle" font-size="13px" width="549px" fill="#323232" font-weight="400" align="middle" anchor="middle" family="微软雅黑" size="13px" weight="400" font-style="" opacity="1" y="16.55" transform="rotate(0)"><tspan id="SvgjsTspan1236" dy="16" x="284.5"><tspan id="SvgjsTspan1237" style="text-decoration:;">service</tspan></tspan></text></g></g><g id="SvgjsG1238" transform="translate(200,178)"><path id="SvgjsPath1239" d="M 0 0L 112 0L 112 393L 0 393Z" stroke="rgba(50,50,50,1)" stroke-width="2" fill-opacity="1" fill="#ffffff"></path><g id="SvgjsG1240"><text id="SvgjsText1241" font-family="微软雅黑" text-anchor="middle" font-size="13px" width="92px" fill="#323232" font-weight="400" align="middle" anchor="middle" family="微软雅黑" size="13px" weight="400" font-style="" opacity="1" y="186.55" transform="rotate(0)"></text></g></g><g id="SvgjsG1242" transform="translate(349,178)"><path id="SvgjsPath1243" d="M 0 0L 112 0L 112 284L 0 284Z" stroke="rgba(50,50,50,1)" stroke-width="2" fill-opacity="1" fill="#ffffff"></path><g id="SvgjsG1244"><text id="SvgjsText1245" font-family="微软雅黑" text-anchor="middle" font-size="13px" width="92px" fill="#323232" font-weight="400" align="middle" anchor="middle" family="微软雅黑" size="13px" weight="400" font-style="" opacity="1" y="132.05" transform="rotate(0)"></text></g></g><g id="SvgjsG1246" transform="translate(501,178)"><path id="SvgjsPath1247" d="M 0 0L 112 0L 112 284L 0 284Z" stroke="rgba(50,50,50,1)" stroke-width="2" fill-opacity="1" fill="#ffffff"></path><g id="SvgjsG1248"><text id="SvgjsText1249" font-family="微软雅黑" text-anchor="middle" font-size="13px" width="92px" fill="#323232" font-weight="400" align="middle" anchor="middle" family="微软雅黑" size="13px" weight="400" font-style="" opacity="1" y="132.05" transform="rotate(0)"></text></g></g><g id="SvgjsG1250" transform="translate(656,178)"><path id="SvgjsPath1251" d="M 0 0L 112 0L 112 284L 0 284Z" stroke="rgba(50,50,50,1)" stroke-width="2" fill-opacity="1" fill="#ffffff"></path><g id="SvgjsG1252"><text id="SvgjsText1253" font-family="微软雅黑" text-anchor="middle" font-size="13px" width="92px" fill="#323232" font-weight="400" align="middle" anchor="middle" family="微软雅黑" size="13px" weight="400" font-style="" opacity="1" y="132.05" transform="rotate(0)"></text></g></g><g id="SvgjsG1254" transform="translate(25,309.5)"><path id="SvgjsPath1255" d="M 0 0L 120 0L 120 40L 0 40Z" stroke="none" fill="none"></path><g id="SvgjsG1256"><text id="SvgjsText1257" font-family="微软雅黑" text-anchor="middle" font-size="20px" width="120px" fill="#323232" font-weight="400" align="middle" anchor="middle" family="微软雅黑" size="20px" weight="400" font-style="" opacity="1" y="-8" transform="rotate(0)"><tspan id="SvgjsTspan1258" dy="25" x="60"><tspan id="SvgjsTspan1259" style="text-decoration:;">edge</tspan></tspan><tspan id="SvgjsTspan1260" dy="25" x="60"><tspan id="SvgjsTspan1261" style="text-decoration:;">servers</tspan></tspan></text></g></g><g id="SvgjsG1262" transform="translate(206,221)"><path id="SvgjsPath1263" d="M 0 0L 100 0L 100 70L 0 70Z" stroke="rgba(50,50,50,1)" stroke-width="2" fill-opacity="1" fill="#ffffff"></path><g id="SvgjsG1264"><text id="SvgjsText1265" font-family="微软雅黑" text-anchor="middle" font-size="13px" width="80px" fill="#323232" font-weight="400" align="middle" anchor="middle" family="微软雅黑" size="13px" weight="400" font-style="" opacity="1" y="17.05" transform="rotate(0)"><tspan id="SvgjsTspan1266" dy="16" x="50"><tspan id="SvgjsTspan1267" style="text-decoration:;">shallow</tspan></tspan><tspan id="SvgjsTspan1268" dy="16" x="50"><tspan id="SvgjsTspan1269" style="text-decoration:;">NN</tspan></tspan></text></g></g><g id="SvgjsG1270" transform="translate(355,221)"><path id="SvgjsPath1271" d="M 0 0L 100 0L 100 70L 0 70Z" stroke="rgba(50,50,50,1)" stroke-width="2" fill-opacity="1" fill="#ffffff"></path><g id="SvgjsG1272"><text id="SvgjsText1273" font-family="微软雅黑" text-anchor="middle" font-size="13px" width="80px" fill="#323232" font-weight="400" align="middle" anchor="middle" family="微软雅黑" size="13px" weight="400" font-style="" opacity="1" y="17.05" transform="rotate(0)"><tspan id="SvgjsTspan1274" dy="16" x="50"><tspan id="SvgjsTspan1275" style="text-decoration:;">shallow</tspan></tspan><tspan id="SvgjsTspan1276" dy="16" x="50"><tspan id="SvgjsTspan1277" style="text-decoration:;">NN</tspan></tspan></text></g></g><g id="SvgjsG1278" transform="translate(507,221)"><path id="SvgjsPath1279" d="M 0 0L 100 0L 100 70L 0 70Z" stroke="rgba(50,50,50,1)" stroke-width="2" fill-opacity="1" fill="#ffffff"></path><g id="SvgjsG1280"><text id="SvgjsText1281" font-family="微软雅黑" text-anchor="middle" font-size="13px" width="80px" fill="#323232" font-weight="400" align="middle" anchor="middle" family="微软雅黑" size="13px" weight="400" font-style="" opacity="1" y="17.05" transform="rotate(0)"><tspan id="SvgjsTspan1282" dy="16" x="50"><tspan id="SvgjsTspan1283" style="text-decoration:;">shallow</tspan></tspan><tspan id="SvgjsTspan1284" dy="16" x="50"><tspan id="SvgjsTspan1285" style="text-decoration:;">NN</tspan></tspan></text></g></g><g id="SvgjsG1286" transform="translate(662,221)"><path id="SvgjsPath1287" d="M 0 0L 100 0L 100 70L 0 70Z" stroke="rgba(50,50,50,1)" stroke-width="2" fill-opacity="1" fill="#ffffff"></path><g id="SvgjsG1288"><text id="SvgjsText1289" font-family="微软雅黑" text-anchor="middle" font-size="13px" width="80px" fill="#323232" font-weight="400" align="middle" anchor="middle" family="微软雅黑" size="13px" weight="400" font-style="" opacity="1" y="17.05" transform="rotate(0)"><tspan id="SvgjsTspan1290" dy="16" x="50"><tspan id="SvgjsTspan1291" style="text-decoration:;">shallow</tspan></tspan><tspan id="SvgjsTspan1292" dy="16" x="50"><tspan id="SvgjsTspan1293" style="text-decoration:;">NN</tspan></tspan></text></g></g><g id="SvgjsG1294" transform="translate(213,181)"><path id="SvgjsPath1295" d="M 0 0L 120 0L 120 40L 0 40Z" stroke="none" fill="none"></path><g id="SvgjsG1296"><text id="SvgjsText1297" font-family="微软雅黑" text-anchor="middle" font-size="13px" width="120px" fill="#323232" font-weight="400" align="middle" anchor="middle" family="微软雅黑" size="13px" weight="400" font-style="" opacity="1" y="10.05" transform="rotate(0)"><tspan id="SvgjsTspan1298" dy="16" x="60"><tspan id="SvgjsTspan1299" style="text-decoration:;">#0</tspan></tspan></text></g></g><g id="SvgjsG1300" transform="translate(361,181)"><path id="SvgjsPath1301" d="M 0 0L 120 0L 120 40L 0 40Z" stroke="none" fill="none"></path><g id="SvgjsG1302"><text id="SvgjsText1303" font-family="微软雅黑" text-anchor="middle" font-size="13px" width="120px" fill="#323232" font-weight="400" align="middle" anchor="middle" family="微软雅黑" size="13px" weight="400" font-style="" opacity="1" y="10.05" transform="rotate(0)"><tspan id="SvgjsTspan1304" dy="16" x="60"><tspan id="SvgjsTspan1305" style="text-decoration:;">#1</tspan></tspan></text></g></g><g id="SvgjsG1306" transform="translate(515,181)"><path id="SvgjsPath1307" d="M 0 0L 120 0L 120 40L 0 40Z" stroke="none" fill="none"></path><g id="SvgjsG1308"><text id="SvgjsText1309" font-family="微软雅黑" text-anchor="middle" font-size="13px" width="120px" fill="#323232" font-weight="400" align="middle" anchor="middle" family="微软雅黑" size="13px" weight="400" font-style="" opacity="1" y="10.05" transform="rotate(0)"><tspan id="SvgjsTspan1310" dy="16" x="60"><tspan id="SvgjsTspan1311" style="text-decoration:;">#2</tspan></tspan></text></g></g><g id="SvgjsG1312" transform="translate(667,181)"><path id="SvgjsPath1313" d="M 0 0L 120 0L 120 40L 0 40Z" stroke="none" fill="none"></path><g id="SvgjsG1314"><text id="SvgjsText1315" font-family="微软雅黑" text-anchor="middle" font-size="13px" width="120px" fill="#323232" font-weight="400" align="middle" anchor="middle" family="微软雅黑" size="13px" weight="400" font-style="" opacity="1" y="10.05" transform="rotate(0)"><tspan id="SvgjsTspan1316" dy="16" x="60"><tspan id="SvgjsTspan1317" style="text-decoration:;">#3</tspan></tspan></text></g></g><g id="SvgjsG1318" transform="translate(355,369)"><path id="SvgjsPath1319" d="M 0 0L 100 0L 100 70L 0 70Z" stroke="rgba(50,50,50,1)" stroke-width="2" fill-opacity="1" fill="#ffffff"></path><g id="SvgjsG1320"><text id="SvgjsText1321" font-family="微软雅黑" text-anchor="middle" font-size="13px" width="80px" fill="#323232" font-weight="400" align="middle" anchor="middle" family="微软雅黑" size="13px" weight="400" font-style="" opacity="1" y="17.05" transform="rotate(0)"><tspan id="SvgjsTspan1322" dy="16" x="50"><tspan id="SvgjsTspan1323" style="text-decoration:;">feature map</tspan></tspan><tspan id="SvgjsTspan1324" dy="16" x="50"><tspan id="SvgjsTspan1325" style="text-decoration:;">storage</tspan></tspan></text></g></g><g id="SvgjsG1326" transform="translate(507,369)"><path id="SvgjsPath1327" d="M 0 0L 100 0L 100 70L 0 70Z" stroke="rgba(50,50,50,1)" stroke-width="2" fill-opacity="1" fill="#ffffff"></path><g id="SvgjsG1328"><text id="SvgjsText1329" font-family="微软雅黑" text-anchor="middle" font-size="13px" width="80px" fill="#323232" font-weight="400" align="middle" anchor="middle" family="微软雅黑" size="13px" weight="400" font-style="" opacity="1" y="17.05" transform="rotate(0)"><tspan id="SvgjsTspan1330" dy="16" x="50"><tspan id="SvgjsTspan1331" style="text-decoration:;">feature map</tspan></tspan><tspan id="SvgjsTspan1332" dy="16" x="50"><tspan id="SvgjsTspan1333" style="text-decoration:;">storage</tspan></tspan></text></g></g><g id="SvgjsG1334" transform="translate(662,369)"><path id="SvgjsPath1335" d="M 0 0L 100 0L 100 70L 0 70Z" stroke="rgba(50,50,50,1)" stroke-width="2" fill-opacity="1" fill="#ffffff"></path><g id="SvgjsG1336"><text id="SvgjsText1337" font-family="微软雅黑" text-anchor="middle" font-size="13px" width="80px" fill="#323232" font-weight="400" align="middle" anchor="middle" family="微软雅黑" size="13px" weight="400" font-style="" opacity="1" y="17.05" transform="rotate(0)"><tspan id="SvgjsTspan1338" dy="16" x="50"><tspan id="SvgjsTspan1339" style="text-decoration:;">feature map</tspan></tspan><tspan id="SvgjsTspan1340" dy="16" x="50"><tspan id="SvgjsTspan1341" style="text-decoration:;">storage</tspan></tspan></text></g></g><g id="SvgjsG1342" transform="translate(206,374)"><path id="SvgjsPath1343" d="M 0 0L 100 0L 100 70L 0 70Z" stroke="rgba(50,50,50,1)" stroke-width="2" fill-opacity="1" fill="#ffffff"></path><g id="SvgjsG1344"><text id="SvgjsText1345" font-family="微软雅黑" text-anchor="middle" font-size="13px" width="80px" fill="#323232" font-weight="400" align="middle" anchor="middle" family="微软雅黑" size="13px" weight="400" font-style="" opacity="1" y="17.05" transform="rotate(0)"><tspan id="SvgjsTspan1346" dy="16" x="50"><tspan id="SvgjsTspan1347" style="text-decoration:;">feature map</tspan></tspan><tspan id="SvgjsTspan1348" dy="16" x="50"><tspan id="SvgjsTspan1349" style="text-decoration:;">storage</tspan></tspan></text></g></g><g id="SvgjsG1350" transform="translate(206,488)"><path id="SvgjsPath1351" d="M 0 0L 100 0L 100 70L 0 70Z" stroke="rgba(50,50,50,1)" stroke-width="2" fill-opacity="1" fill="#ffffff"></path><g id="SvgjsG1352"><text id="SvgjsText1353" font-family="微软雅黑" text-anchor="middle" font-size="13px" width="80px" fill="#323232" font-weight="400" align="middle" anchor="middle" family="微软雅黑" size="13px" weight="400" font-style="" opacity="1" y="17.05" transform="rotate(0)"><tspan id="SvgjsTspan1354" dy="16" x="50"><tspan id="SvgjsTspan1355" style="text-decoration:;">local</tspan></tspan><tspan id="SvgjsTspan1356" dy="16" x="50"><tspan id="SvgjsTspan1357" style="text-decoration:;">aggregator</tspan></tspan></text></g></g><g id="SvgjsG1358"><path id="SvgjsPath1359" d="M256 291L256 332.5L256 332.5L256 374" stroke="#323232" stroke-width="2" fill="none" marker-end="url(#SvgjsMarker1360)"></path><rect id="SvgjsRect1362" width="43" height="32" x="234.5" y="316.5" fill="#ffffff"></rect><text id="SvgjsText1363" font-family="微软雅黑" text-anchor="middle" font-size="13px" width="43px" fill="#323232" font-weight="400" align="top" anchor="middle" family="微软雅黑" size="13px" weight="400" font-style="" opacity="1" y="314.55" transform="rotate(0)"><tspan id="SvgjsTspan1364" dy="16" x="256"><tspan id="SvgjsTspan1365" style="text-decoration:;">feature</tspan></tspan><tspan id="SvgjsTspan1366" dy="16" x="256"><tspan id="SvgjsTspan1367" style="text-decoration:;">map</tspan></tspan></text></g><g id="SvgjsG1368"><path id="SvgjsPath1369" d="M405 291L405 330L405 330L405 369" stroke="#323232" stroke-width="2" fill="none" marker-end="url(#SvgjsMarker1370)"></path></g><g id="SvgjsG1372"><path id="SvgjsPath1373" d="M557 291L557 330L557 330L557 369" stroke="#323232" stroke-width="2" fill="none" marker-end="url(#SvgjsMarker1374)"></path></g><g id="SvgjsG1376"><path id="SvgjsPath1377" d="M712 291L712 330L712 330L712 369" stroke="#323232" stroke-width="2" fill="none" marker-end="url(#SvgjsMarker1378)"></path></g><g id="SvgjsG1380"><path id="SvgjsPath1381" d="M206 256L176 256L176 523L206 523" stroke-dasharray="8,5" stroke="#323232" stroke-width="2" fill="none" marker-end="url(#SvgjsMarker1382)"></path></g><g id="SvgjsG1384"><path id="SvgjsPath1385" d="M355 256L330.5 256L330.5 523L306 523" stroke-dasharray="8,5" stroke="#323232" stroke-width="2" fill="none" marker-end="url(#SvgjsMarker1386)"></path></g><g id="SvgjsG1388"><path id="SvgjsPath1389" d="M507 256L477.5 256L477.5 523L306 523" stroke-dasharray="8,5" stroke="#323232" stroke-width="2" fill="none" marker-end="url(#SvgjsMarker1390)"></path></g><g id="SvgjsG1392"><path id="SvgjsPath1393" d="M662 256L634 256L634 523L306 523" stroke-dasharray="8,5" stroke="#323232" stroke-width="2" fill="none" marker-end="url(#SvgjsMarker1394)"></path><rect id="SvgjsRect1396" width="79" height="32" x="578" y="507" fill="#ffffff"></rect><text id="SvgjsText1397" font-family="微软雅黑" text-anchor="middle" font-size="13px" width="79px" fill="#323232" font-weight="400" align="top" anchor="middle" family="微软雅黑" size="13px" weight="400" font-style="" opacity="1" y="505.05" transform="rotate(0)"><tspan id="SvgjsTspan1398" dy="16" x="617.5"><tspan id="SvgjsTspan1399" style="text-decoration:;">classification</tspan></tspan><tspan id="SvgjsTspan1400" dy="16" x="617.5"><tspan id="SvgjsTspan1401" style="text-decoration:;">probability</tspan></tspan></text></g><g id="SvgjsG1402"><path id="SvgjsPath1403" d="M463.5 78L463.5 117.5L557 117.5L557 221" stroke="#323232" stroke-width="2" fill="none" marker-end="url(#SvgjsMarker1404)"></path></g><g id="SvgjsG1406"><path id="SvgjsPath1407" d="M463.5 78L463.5 117.5L405 117.5L405 221" stroke="#323232" stroke-width="2" fill="none" marker-end="url(#SvgjsMarker1408)"></path></g><g id="SvgjsG1410" transform="translate(429,78)"><path id="SvgjsPath1411" d="M 0 0L 120 0L 120 40L 0 40Z" stroke="none" fill="none"></path><g id="SvgjsG1412"><text id="SvgjsText1413" font-family="微软雅黑" text-anchor="middle" font-size="13px" width="120px" fill="#323232" font-weight="400" align="middle" anchor="middle" family="微软雅黑" size="13px" weight="400" font-style="" opacity="1" y="10.05" transform="rotate(0)"><tspan id="SvgjsTspan1414" dy="16" x="60"><tspan id="SvgjsTspan1415" style="text-decoration:;">image</tspan></tspan></text></g></g><g id="SvgjsG1416" transform="translate(236,649)"><path id="SvgjsPath1417" d="M 0 0L 526 0L 526 64L 0 64Z" stroke="rgba(50,50,50,1)" stroke-width="2" fill-opacity="1" fill="#ffffff"></path><g id="SvgjsG1418"><text id="SvgjsText1419" font-family="微软雅黑" text-anchor="middle" font-size="13px" width="506px" fill="#323232" font-weight="400" align="middle" anchor="middle" family="微软雅黑" size="13px" weight="400" font-style="" opacity="1" y="22.05" transform="rotate(0)"><tspan id="SvgjsTspan1420" dy="16" x="263"><tspan id="SvgjsTspan1421" style="text-decoration:;">cloud (large NN)</tspan></tspan></text></g></g><g id="SvgjsG1422"><path id="SvgjsPath1423" d="M256 444L256 475.5L499 475.5L499 649" stroke="#323232" stroke-width="2" fill="none" marker-end="url(#SvgjsMarker1424)"></path></g><g id="SvgjsG1426"><path id="SvgjsPath1427" d="M405 439L405 476L499 476L499 649" stroke="#323232" stroke-width="2" fill="none" marker-end="url(#SvgjsMarker1428)"></path></g><g id="SvgjsG1430"><path id="SvgjsPath1431" d="M557 439L557 476L499 476L499 649" stroke="#323232" stroke-width="2" fill="none" marker-end="url(#SvgjsMarker1432)"></path></g><g id="SvgjsG1434"><path id="SvgjsPath1435" d="M712 439L712 476L499 476L499 649" stroke="#323232" stroke-width="2" fill="none" marker-end="url(#SvgjsMarker1436)"></path></g><g id="SvgjsG1438"><path id="SvgjsPath1439" d="M463.5 78L463.5 117.5L256 117.5L256 221" stroke="#323232" stroke-width="2" fill="none" marker-end="url(#SvgjsMarker1440)"></path></g><g id="SvgjsG1442"><path id="SvgjsPath1443" d="M463.5 78L463.5 117.5L712 117.5L712 221" stroke="#323232" stroke-width="2" fill="none" marker-end="url(#SvgjsMarker1444)"></path></g></svg>